<svg width="30" height="40" viewBox="0 0 30 40" fill="none" xmlns="http://www.w3.org/2000/svg">
<g clip-path="url(#clip0_227_1655)">
<path fill-rule="evenodd" clip-rule="evenodd" d="M3.86123 37.0649H20.6772C22.757 37.0649 24.6585 36.1869 26.026 34.7926C27.3925 33.3691 28.2536 31.4605 28.2536 29.3098C28.2536 27.1892 27.3925 25.2504 26.026 23.8571C24.6585 22.4637 22.757 21.5848 20.6772 21.5848H15.151C14.7944 22.3121 14.0524 22.8274 13.1904 22.8274C11.9421 22.8274 10.9618 21.7968 10.9618 20.5551C10.9618 19.2824 11.9421 18.2828 13.1904 18.2828C14.0219 18.2828 14.7648 18.768 15.151 19.4642H20.6772C22.757 19.4642 24.6585 18.6163 26.026 17.1919C27.3925 15.7986 28.2536 13.8598 28.2536 11.7392C28.2536 9.74013 27.5108 7.89179 26.2634 6.49847C25.0152 5.13529 23.292 4.19605 21.3609 4.01423H3.80117C3.41496 4.71136 2.70259 5.19558 1.87011 5.19558C0.622771 5.19558 -0.357544 4.1659 -0.357544 2.92425C-0.357544 1.65151 0.622771 0.651978 1.87011 0.651978C2.76172 0.651978 3.53415 1.16729 3.8908 1.95486H21.4801C23.9461 2.16683 26.1442 3.34818 27.7491 5.10515C29.3235 6.86211 30.3039 9.19467 30.3039 11.7392C30.3039 14.4354 29.2044 16.8895 27.4812 18.6766C26.7383 19.434 25.8772 20.0398 24.9265 20.525C25.8772 21.0092 26.7383 21.6451 27.4812 22.4025C29.2044 24.1595 30.3039 26.6136 30.3039 29.3098C30.3039 32.006 29.2044 34.4601 27.4812 36.2472C25.7284 38.0343 23.3215 39.1252 20.6772 39.1252H3.86123C3.47502 39.8525 2.73216 40.3668 1.87011 40.3668C0.622771 40.3668 -0.357544 39.3372 -0.357544 38.0955C-0.357544 36.8529 0.622771 35.8232 1.87011 35.8232C2.73216 35.8232 3.47502 36.3376 3.86123 37.0649ZM2.37551 39.1252H2.43465V39.0951H2.46421L2.4947 39.0649H2.52427V39.0338H2.55383L2.5834 39.0037L2.61297 38.9735L2.64253 38.9434L2.67302 38.9132L2.70259 38.8831L2.73216 38.852V38.8218H2.76172L2.79129 38.7917C2.79129 38.7616 2.79129 38.7616 2.82086 38.7616V38.7013H2.85042V38.6711L2.88091 38.64V38.6099L2.91048 38.5797V38.5496L2.94005 38.5194V38.4582L2.96961 38.4281V38.3376L2.99918 38.3075C2.99918 38.2764 2.99918 38.1257 2.99918 38.0955C2.99918 38.0644 2.99918 38.0644 2.99918 38.0343V37.8525H2.96961V37.762L2.94005 37.7319V37.6706L2.91048 37.6405V37.6104L2.88091 37.5802V37.5501L2.85042 37.5199V37.4888H2.82086V37.4285C2.79129 37.4285 2.79129 37.3984 2.79129 37.3984L2.76172 37.3682H2.73216V37.3381L2.70259 37.307V37.2769H2.67302L2.55383 37.1563H2.52427V37.1261H2.4947L2.46421 37.095H2.43465V37.0649H2.37551C2.22676 36.9744 2.04843 36.9443 1.87011 36.9443C1.24644 36.9443 0.711471 37.4587 0.711471 38.0955C0.711471 38.7314 1.24644 39.2467 1.87011 39.2467C2.04843 39.2467 2.22676 39.2156 2.37551 39.1252ZM13.6958 21.5848H13.7254V21.5546H13.7549V21.5245H13.8141V21.4943H13.8436L13.9037 21.4331H13.9333V21.403L13.9628 21.3728H13.9924V21.3427H14.0219V21.3125H14.0524V21.2824H14.082V21.2513C14.1116 21.2211 14.1116 21.2211 14.1116 21.191L14.1707 21.1307V21.1006L14.2003 21.0704V21.0393L14.2298 21.0092V20.9489H14.2603V20.8886C14.2603 20.8575 14.2899 20.8575 14.2899 20.8274V20.7369L14.3195 20.7068V20.3733L14.2899 20.3431V20.2216H14.2603V20.1312H14.2298V20.0699L14.2003 20.0398V20.0096L14.1707 19.9795V19.9494H14.1411V19.8881H14.1116V19.858H14.082V19.8278L14.0524 19.7977V19.7675H14.0219V19.7374H13.9924C13.9924 19.7063 13.9628 19.7063 13.9628 19.7063V19.6762C13.9333 19.646 13.8741 19.6159 13.8436 19.6159V19.5857C13.7845 19.5556 13.7549 19.5254 13.6958 19.4943H13.6653L13.6357 19.4642C13.4873 19.4039 13.3388 19.3737 13.1904 19.3737C13.0121 19.3737 12.8633 19.4039 12.7146 19.4642V19.4943H12.6554C12.6259 19.5254 12.5667 19.5556 12.5067 19.5857V19.6159C12.4771 19.6159 12.4475 19.646 12.3884 19.6762V19.7063C12.3884 19.7063 12.3588 19.7063 12.3588 19.7374H12.3283V19.7675L12.2988 19.7977C12.2988 19.7977 12.2988 19.8278 12.2692 19.8278V19.858H12.2396V19.8881L12.2101 19.9192V19.9494L12.1805 19.9795V20.0096H12.15V20.0699H12.1205V20.1312L12.0909 20.1613V20.2518H12.0613V20.4034H12.0318V20.6757H12.0613V20.8274C12.0909 20.8575 12.0909 20.8575 12.0909 20.8886V20.9489H12.1205V21.0092H12.15V21.0704L12.1805 21.1006V21.1307H12.2101V21.1609L12.2396 21.191C12.2396 21.2211 12.2396 21.2211 12.2692 21.2513L12.2988 21.2824V21.3125H12.3283V21.3427H12.3588V21.3728H12.3884L12.418 21.403V21.4331H12.4475L12.4771 21.4642H12.5067V21.4943H12.5372V21.5245H12.5963V21.5546H12.6259L12.6554 21.5848C12.8042 21.6451 12.9825 21.7063 13.1904 21.7063C13.3687 21.7063 13.547 21.6451 13.6958 21.5848ZM2.19719 4.01423H2.25632L2.28589 3.98408H2.34594V3.95393H2.40508V3.92379H2.46421V3.89364H2.4947C2.52427 3.8635 2.52427 3.8635 2.55383 3.8635V3.83241H2.5834V3.80226H2.61297C2.64253 3.77212 2.64253 3.77212 2.67302 3.74197L2.70259 3.71182L2.73216 3.68168V3.65059H2.76172V3.62044C2.79129 3.62044 2.79129 3.5903 2.82086 3.56015V3.53H2.85042V3.46971H2.88091C2.88091 3.43862 2.88091 3.43862 2.88091 3.40848H2.91048V3.34818H2.94005V3.2568H2.96961V3.13622H2.99918V2.71229L2.96961 2.6812V2.56061H2.94005V2.46923H2.91048V2.43909L2.88091 2.40894V2.34865H2.85042V2.3185L2.82086 2.28741V2.25727C2.79129 2.25727 2.79129 2.22712 2.79129 2.22712C2.76172 2.19697 2.76172 2.19697 2.76172 2.16683H2.73216V2.13668H2.70259V2.10559H2.67302V2.07545H2.64253V2.0453H2.61297V2.01515H2.5834C2.55384 1.98501 2.55383 1.98501 2.52427 1.95486C2.31638 1.83333 2.10849 1.7429 1.87011 1.7429C1.24644 1.7429 0.711471 2.28741 0.711471 2.92425C0.711471 3.56015 1.24644 4.07546 1.87011 4.07546C1.9893 4.07546 2.10849 4.07546 2.19719 4.01423Z" fill="#282828"/>
<path fill-rule="evenodd" clip-rule="evenodd" d="M3.14794 20.4637L15.9234 31.7337C16.1914 31.6122 16.5185 31.5217 16.8446 31.5217C18.0633 31.5217 19.0732 32.5514 19.0732 33.7931C19.0732 35.0357 18.0633 36.0653 16.8446 36.0653C15.6269 36.0653 14.617 35.0357 14.617 33.7931C14.617 33.6423 14.617 33.4907 14.6465 33.339L2.82086 22.9178V30.4911C3.56372 30.8548 4.09869 31.6423 4.09869 32.5514C4.09869 33.7931 3.0888 34.8237 1.87011 34.8237C0.622771 34.8237 -0.357544 33.7931 -0.357544 32.5514C-0.357544 31.6725 0.117369 30.9461 0.801094 30.5524V10.4674C0.117369 10.0736 -0.357544 9.3162 -0.357544 8.46739C-0.357544 7.22574 0.622771 6.19606 1.87011 6.19606C3.0888 6.19606 4.09869 7.22574 4.09869 8.46739C4.09869 9.37649 3.56372 10.1339 2.82086 10.4976V18.0106L14.7352 7.498C14.6465 7.25589 14.617 7.01378 14.617 6.77166C14.617 5.52907 15.6269 4.49939 16.8446 4.49939C18.0633 4.49939 19.0732 5.52907 19.0732 6.77166C19.0732 8.01331 18.0633 9.043 16.8446 9.043C16.6072 9.043 16.3993 9.01285 16.1914 8.95256L3.14794 20.4637ZM2.6721 31.7328L2.64253 31.7026V31.6725H2.61297C2.61297 31.6423 2.5834 31.6423 2.5834 31.6423H2.55383C2.55383 31.6122 2.55383 31.6122 2.52427 31.6122V31.5811H2.49378L2.46421 31.5509H2.43464V31.5208H2.37551L2.34594 31.4907L2.31545 31.4605H2.25632L2.22676 31.4304H2.13713V31.3993H1.95973L1.92924 31.3691H1.78141V31.3993H1.60309V31.4304H1.51346L1.4839 31.4605H1.42476V31.4907H1.36471L1.33514 31.5208H1.30557V31.5509H1.24644V31.5811H1.21687L1.18638 31.6122H1.15682V31.6423H1.12725V31.6725H1.09768V31.7026H1.06812V31.7328H1.03855V31.7629H1.00898V31.7931H0.978494V31.8241H0.948927V31.8844H0.91936V31.9146C0.889794 31.9146 0.889794 31.9447 0.889794 31.9447V31.9749H0.860228V32.006L0.830661 32.0361V32.0964H0.800171V32.1266C0.741037 32.2782 0.711471 32.3998 0.711471 32.5505C0.711471 32.672 0.741037 32.8237 0.800171 32.9443V33.0055H0.830661V33.0356L0.860228 33.0658V33.0959L0.889794 33.1261V33.1572L0.948927 33.2175V33.2476L0.978494 33.2778L1.00898 33.3079V33.3381H1.03855L1.06812 33.3691V33.3993H1.09768L1.12725 33.4294L1.15682 33.4596H1.18638V33.4897H1.21687V33.5199H1.24644L1.27601 33.551H1.30557L1.33514 33.5811H1.36471L1.3952 33.6113H1.42476L1.45433 33.6414H1.51346L1.54303 33.6715H1.63265L1.66222 33.7017H2.078V33.6715H2.16762L2.19719 33.6414H2.28589V33.6113H2.34594V33.5811H2.40508V33.551H2.46421V33.5199H2.49378L2.52427 33.4897H2.55383V33.4596H2.5834V33.4294H2.61297V33.3993H2.64253L2.6721 33.3691V33.3381H2.70167L2.73216 33.3079V33.2778H2.76172V33.2476H2.79129V33.2175L2.82086 33.1873V33.1572C2.94005 32.9754 2.99918 32.7624 2.99918 32.5505C2.99918 32.3081 2.93974 32.0961 2.82086 31.9146L2.79591 31.8844H2.79683L2.79129 31.8769V31.8778L2.6721 31.7328ZM2.82086 31.9146V31.8844H2.79683L2.82086 31.9146ZM2.79129 31.8788L2.79591 31.8844H2.79129V31.8788ZM2.79129 31.8543L2.76172 31.8241L2.73216 31.794V31.7639H2.70167L2.79129 31.8778V31.8543ZM16.9333 32.6419H16.8446C16.221 32.6419 15.7156 33.1562 15.7156 33.7931V34.0352L15.7451 34.0653V34.1558H15.7747V34.2472H15.8043V34.3074H15.8347V34.3687H15.8643C15.8643 34.3988 15.8643 34.3988 15.8939 34.429V34.4591C16.1018 34.7625 16.4584 34.9433 16.8446 34.9433C17.4683 34.9433 17.9737 34.429 17.9737 33.7931C17.9737 33.1864 17.5284 32.672 16.9333 32.6419ZM0.800171 8.86118V8.92147H0.829737V8.98176H0.860228V9.01191L0.889794 9.043V9.07314L0.91936 9.10329V9.13343H0.948927V9.16358L0.978494 9.19373L1.00806 9.22387V9.25496H1.03855V9.28511H1.06812V9.31525H1.09768L1.12725 9.3454L1.15682 9.37555H1.18638V9.40569H1.21687V9.43678H1.24644L1.27601 9.46693H1.30557V9.49707H1.36471V9.52722H1.42476L1.45433 9.55737H1.51346V9.58751H1.63265V9.6186H2.10757V9.58751H2.19719L2.22676 9.55737H2.28589V9.52722H2.34502L2.37551 9.49707H2.40508V9.46693H2.46421V9.43678H2.52334V9.40569H2.55383V9.37555H2.5834V9.3454H2.61297L2.73216 9.22387V9.19373H2.76172V9.16358H2.79129V9.13343L2.82086 9.10329V9.07314C2.94005 8.92147 2.99918 8.67936 2.99918 8.46739C2.99918 8.22496 2.93974 8.01269 2.82086 7.83055V7.80041H2.79129V7.77026L2.76172 7.74011L2.73216 7.70997L2.70167 7.67982V7.64873H2.6721V7.61859H2.64253V7.58844H2.61297L2.5834 7.55829L2.55383 7.52815H2.52334V7.498H2.49378L2.46421 7.46691H2.43464V7.43677H2.37551L2.34502 7.40662H2.31545L2.28589 7.37647H2.22676V7.34633H2.13713V7.31618H1.60309V7.34633H1.51346V7.37647H1.42476V7.40662H1.36471V7.43677H1.30557V7.46691H1.24644V7.498H1.21687V7.52815H1.18638L1.15682 7.55829H1.12725V7.58844H1.09768V7.61859H1.06812V7.64873H1.03855V7.67982H1.00806V7.70997H0.978494V7.74011H0.948927V7.80041H0.91936V7.83055H0.889794V7.89179H0.860228V7.95208H0.829737V8.01237H0.800171V8.07361C0.741037 8.19419 0.711471 8.31572 0.711471 8.46739C0.711471 8.61812 0.741037 8.73965 0.800171 8.86118ZM15.7156 6.64919V6.77072C15.7156 7.40662 16.221 7.92193 16.8446 7.92193H17.0821L17.1117 7.89179H17.2013V7.8607H17.2604L17.29 7.83055H17.35V7.80041H17.4092V7.77026H17.4387V7.74011H17.4683C17.4979 7.70997 17.4979 7.70997 17.5284 7.70997C17.5284 7.67982 17.5579 7.67982 17.5579 7.67982L17.5875 7.64873L17.6171 7.61859L17.6466 7.58844H17.6762V7.55829L17.7058 7.52815L17.7362 7.498L17.7658 7.46691V7.43677C17.9146 7.25495 17.9737 7.01283 17.9737 6.77072C17.9737 6.13482 17.4683 5.61951 16.8446 5.61951C16.2505 5.61951 15.7747 6.07359 15.7156 6.64919Z" fill="#282828"/>
</g>
<defs>
<clipPath id="clip0_227_1655">
<rect width="30" height="40" fill="white"/>
</clipPath>
</defs>
</svg>
